<?xml version="1.0" encoding="UTF-8"?>
<svg xmlns="http://www.w3.org/2000/svg" xmlns:xlink="http://www.w3.org/1999/xlink" width="42px" height="42px" viewBox="0 0 42 42" version="1.1">
<g id="surface1">
<path style=" stroke:none;fill-rule:evenodd;fill:rgb(100%,100%,100%);fill-opacity:1;" d="M 4.257812 37.890625 L 6.617188 29.285156 C 5.164062 26.765625 4.398438 23.910156 4.398438 20.980469 C 4.402344 11.824219 11.855469 4.375 21.011719 4.375 C 25.457031 4.375 29.625 6.105469 32.761719 9.246094 C 35.898438 12.382812 37.625 16.558594 37.625 20.996094 C 37.621094 30.152344 30.167969 37.601562 21.011719 37.601562 L 21.003906 37.601562 C 18.226562 37.601562 15.492188 36.902344 13.066406 35.582031 Z M 4.257812 37.890625 "/>
<path style=" stroke:none;fill-rule:evenodd;fill:rgb(100%,100%,100%);fill-opacity:1;" d="M 4.257812 38.328125 C 4.144531 38.328125 4.03125 38.28125 3.949219 38.199219 C 3.839844 38.085938 3.796875 37.925781 3.835938 37.777344 L 6.148438 29.34375 C 4.714844 26.800781 3.960938 23.914062 3.960938 20.984375 C 3.964844 11.582031 11.613281 3.9375 21.011719 3.9375 C 25.570312 3.9375 29.855469 5.714844 33.074219 8.9375 C 36.292969 12.160156 38.0625 16.441406 38.0625 20.996094 C 38.058594 30.394531 30.410156 38.039062 21.011719 38.039062 C 18.222656 38.039062 15.460938 37.351562 13.011719 36.046875 L 4.371094 38.3125 C 4.332031 38.324219 4.296875 38.328125 4.257812 38.328125 Z M 4.257812 38.328125 "/>
<path style=" stroke:none;fill-rule:evenodd;fill:rgb(81.176471%,84.705882%,86.27451%);fill-opacity:1;" d="M 21.011719 4.375 C 25.457031 4.375 29.625 6.105469 32.761719 9.246094 C 35.898438 12.382812 37.625 16.558594 37.625 20.996094 C 37.621094 30.152344 30.167969 37.601562 21.011719 37.601562 L 21.003906 37.601562 C 18.226562 37.601562 15.492188 36.902344 13.066406 35.582031 L 4.257812 37.890625 L 6.617188 29.285156 C 5.164062 26.765625 4.398438 23.910156 4.398438 20.980469 C 4.402344 11.824219 11.855469 4.375 21.011719 4.375 M 21.011719 37.601562 L 21.011719 37.601562 M 21.011719 37.601562 L 21.011719 37.601562 M 21.011719 3.5 C 11.375 3.5 3.527344 11.339844 3.523438 20.980469 C 3.523438 23.929688 4.265625 26.832031 5.675781 29.402344 L 3.414062 37.660156 C 3.332031 37.960938 3.417969 38.285156 3.636719 38.507812 C 3.804688 38.675781 4.027344 38.765625 4.257812 38.765625 C 4.332031 38.765625 4.410156 38.757812 4.480469 38.738281 L 12.957031 36.515625 C 15.433594 37.800781 18.207031 38.476562 21.003906 38.476562 C 30.652344 38.476562 38.496094 30.636719 38.5 20.996094 C 38.503906 16.324219 36.683594 11.929688 33.382812 8.628906 C 30.082031 5.324219 25.6875 3.5 21.011719 3.5 Z M 21.011719 3.5 "/>
<path style=" stroke:none;fill-rule:evenodd;fill:rgb(25.098039%,76.470588%,31.764706%);fill-opacity:1;" d="M 30.777344 11.226562 C 28.171875 8.617188 24.707031 7.179688 21.015625 7.179688 C 13.402344 7.179688 7.207031 13.371094 7.203125 20.984375 C 7.203125 23.589844 7.933594 26.128906 9.3125 28.328125 L 9.644531 28.851562 L 8.246094 33.945312 L 13.472656 32.574219 L 13.980469 32.875 C 16.097656 34.132812 18.527344 34.796875 21.007812 34.796875 L 21.011719 34.796875 C 28.621094 34.796875 34.816406 28.605469 34.820312 20.992188 C 34.820312 17.304688 33.386719 13.835938 30.777344 11.226562 Z M 30.777344 11.226562 "/>
<path style=" stroke:none;fill-rule:evenodd;fill:rgb(100%,100%,100%);fill-opacity:1;" d="M 16.859375 14.039062 C 16.550781 13.347656 16.222656 13.335938 15.925781 13.320312 C 15.683594 13.3125 15.40625 13.3125 15.128906 13.3125 C 14.851562 13.3125 14.402344 13.417969 14.023438 13.832031 C 13.640625 14.246094 12.570312 15.25 12.570312 17.292969 C 12.570312 19.335938 14.058594 21.308594 14.265625 21.585938 C 14.472656 21.863281 17.136719 26.1875 21.355469 27.851562 C 24.863281 29.234375 25.574219 28.960938 26.335938 28.890625 C 27.097656 28.820312 28.792969 27.886719 29.136719 26.917969 C 29.484375 25.949219 29.484375 25.117188 29.378906 24.945312 C 29.277344 24.769531 29 24.667969 28.585938 24.460938 C 28.171875 24.25 26.128906 23.246094 25.75 23.109375 C 25.367188 22.972656 25.089844 22.902344 24.8125 23.316406 C 24.539062 23.734375 23.742188 24.667969 23.5 24.945312 C 23.257812 25.222656 23.015625 25.257812 22.601562 25.046875 C 22.1875 24.839844 20.847656 24.402344 19.261719 22.988281 C 18.027344 21.890625 17.195312 20.53125 16.953125 20.113281 C 16.710938 19.699219 16.925781 19.476562 17.136719 19.265625 C 17.320312 19.082031 17.550781 18.78125 17.757812 18.539062 C 17.964844 18.296875 18.035156 18.125 18.171875 17.847656 C 18.3125 17.570312 18.242188 17.328125 18.136719 17.121094 C 18.035156 16.914062 17.230469 14.859375 16.859375 14.039062 Z M 16.859375 14.039062 "/>
</g>
</svg>
